<svg xmlns="http://www.w3.org/2000/svg" viewBox="0 0 396 78" width="396" height="78">
  <defs>
    <marker id="ah-iter" viewBox="0 0 10 10" refX="9" refY="5" markerWidth="7" markerHeight="7" orient="auto-start-reverse">
      <path d="M 0 0 L 10 5 L 0 10 z" fill="#BFC3BE"/>
    </marker>
    <marker id="ah-acc-iter" viewBox="0 0 10 10" refX="9" refY="5" markerWidth="7" markerHeight="7" orient="auto-start-reverse">
      <path d="M 0 0 L 10 5 L 0 10 z" fill="#D4501A"/>
    </marker>
    <marker id="ah-off-iter" viewBox="0 0 10 10" refX="9" refY="5" markerWidth="7" markerHeight="7" orient="auto-start-reverse">
      <path d="M 0 0 L 10 5 L 0 10 z" fill="#9EA2A4"/>
    </marker>
  </defs><rect x="4" y="8" width="78" height="40" fill="#FFFFFF" stroke="#BFC3BE" stroke-width="1"/><text x="43" y="33" font-family="Noto Sans TC, Microsoft JhengHei, sans-serif" font-size="14" font-weight="700" fill="#14161A" text-anchor="middle">目標</text><rect x="108" y="8" width="78" height="40" fill="#FFFFFF" stroke="#BFC3BE" stroke-width="1"/><text x="147" y="33" font-family="Noto Sans TC, Microsoft JhengHei, sans-serif" font-size="14" font-weight="700" fill="#14161A" text-anchor="middle">規劃</text><rect x="212" y="8" width="78" height="40" fill="#FFFFFF" stroke="#BFC3BE" stroke-width="1"/><text x="251" y="33" font-family="Noto Sans TC, Microsoft JhengHei, sans-serif" font-size="14" font-weight="700" fill="#14161A" text-anchor="middle">執行</text><rect x="316" y="8" width="78" height="40" fill="#FFFFFF" stroke="#D4501A" stroke-width="1.5"/><text x="355" y="33" font-family="Noto Sans TC, Microsoft JhengHei, sans-serif" font-size="14" font-weight="700" fill="#D4501A" text-anchor="middle">驗證</text><line x1="86" y1="28" x2="104" y2="28" stroke="#BFC3BE" stroke-width="1.4" marker-end="url(#ah-iter)"/><line x1="190" y1="28" x2="208" y2="28" stroke="#BFC3BE" stroke-width="1.4" marker-end="url(#ah-iter)"/><line x1="294" y1="28" x2="312" y2="28" stroke="#BFC3BE" stroke-width="1.4" marker-end="url(#ah-iter)"/><path d="M 355 48 L 355 54 Q 355 62 347 62 L 262 62" fill="none" stroke="#D4501A" stroke-width="1.5"/><path d="M 134 62 L 51 62 Q 43 62 43 54 L 43 50" fill="none" stroke="#D4501A" stroke-width="1.5" marker-end="url(#ah-acc-iter)"/><text x="198" y="66" font-family="Noto Sans TC, Microsoft JhengHei, sans-serif" font-size="11" font-weight="500" fill="#D4501A" text-anchor="middle">未達標就再一輪</text></svg>